<svg class="main-svg" xmlns="http://www.w3.org/2000/svg" xmlns:xlink="http://www.w3.org/1999/xlink" width="1000" height="400" style="" viewBox="0 0 1000 400"><rect x="0" y="0" width="1000" height="400" style="fill: rgb(255, 255, 255); fill-opacity: 1;"/><defs id="defs-252554"><g class="clips"><clipPath id="clip252554xyplot" class="plotclip"><rect width="1000" height="400"/></clipPath><clipPath id="clip252554x2y2plot" class="plotclip"><rect width="1000" height="400"/></clipPath><clipPath class="axesclip" id="clip252554x"><rect x="0" y="0" width="1000" height="400"/></clipPath><clipPath class="axesclip" id="clip252554y"><rect x="0" y="0" width="1000" height="400"/></clipPath><clipPath class="axesclip" id="clip252554xy"><rect x="0" y="0" width="1000" height="400"/></clipPath><clipPath class="axesclip" id="clip252554y2"><rect x="0" y="0" width="1000" height="400"/></clipPath><clipPath class="axesclip" id="clip252554xy2"><rect x="0" y="0" width="1000" height="400"/></clipPath><clipPath class="axesclip" id="clip252554x2"><rect x="0" y="0" width="1000" height="400"/></clipPath><clipPath class="axesclip" id="clip252554x2y"><rect x="0" y="0" width="1000" height="400"/></clipPath><clipPath class="axesclip" id="clip252554x2y2"><rect x="0" y="0" width="1000" height="400"/></clipPath></g><g class="gradients"/><g class="patterns"/></defs><g class="bglayer"/><g class="layer-below"><g class="imagelayer"/><g class="shapelayer"/></g><g class="cartesianlayer"><g class="subplot xy"><g class="layer-subplot"><g class="shapelayer"/><g class="imagelayer"/></g><g class="minor-gridlayer"><g class="x"/><g class="y"/><g class="x2"/><g class="y2"/></g><g class="gridlayer"><g class="x"/><g class="y"/><g class="x2"/><g class="y2"/></g><g class="zerolinelayer"/><g class="layer-between"><g class="shapelayer"/><g class="imagelayer"/></g><path class="xlines-below"/><path class="ylines-below"/><g class="overlines-below"><path class="x2y2-x"/><path class="x2y2-y"/></g><g class="xaxislayer-below"/><g class="yaxislayer-below"/><g class="overaxes-below"><g class="x2y2-x"/><g class="x2y2-y"/></g><g class="plot" transform="" clip-path="url(#clip252554xyplot)"><g class="scatterlayer mlayer"><g class="trace scatter trace6e87f9" style="stroke-miterlimit: 2; opacity: 1;"><g class="fills"/><g class="errorbars"/><g class="lines"/><g class="points"><path class="point" transform="translate(500,80)" d="M4,0A4,4 0 1,1 0,-4A4,4 0 0,1 4,0Z" style="opacity: 1; stroke-width: 0px; fill: rgb(57, 125, 185); fill-opacity: 1;"/></g><g class="text"/></g><g class="trace scatter trace4277b9" style="stroke-miterlimit: 2; opacity: 1;"><g class="fills"/><g class="errorbars"/><g class="lines"><path class="js-line" d="M0,400L90.91,375L101.01,372.13L191.92,345.32L202.02,342.24L282.83,316.73L292.93,313.43L373.74,286.15L383.84,282.63L464.65,253.39L474.75,249.6L545.45,222.22L555.56,218.18L626.26,188.94L636.36,184.62L707.07,153.3L717.17,148.67L777.78,120L787.88,115.07L848.48,84.51L858.59,79.25L919.19,46.6L929.29,40.98L989.9,6.03L1000,0" style="vector-effect: none; fill: none; stroke: rgb(57, 125, 185); stroke-opacity: 1; stroke-width: 2px; opacity: 1;"/></g><g class="points"/><g class="text"/></g><g class="trace scatter tracedbfdea" style="stroke-miterlimit: 2; opacity: 1;"><g class="fills"/><g class="errorbars"/><g class="lines"><path class="js-line" d="M10.1,-2925.93L40.4,-1047.7L50.51,-866.28L80.81,-555.12L90.91,-489.95L121.21,-348.87L131.31,-313.75L161.62,-230.15L171.72,-207.64L202.02,-151.18L212.12,-135.28L242.42,-94.07L252.53,-82.11L282.83,-50.42L292.93,-41.04L323.23,-15.74L333.33,-8.14L353.54,6.02L363.64,12.62L393.94,30.79L404.04,36.36L434.34,51.8L444.44,56.57L474.75,69.89L484.85,74.04L525.25,89.32L535.35,92.85L575.76,105.97L585.86,109.02L636.36,123.11L646.46,125.71L696.97,137.82L707.07,140.07L767.68,152.59L777.78,154.52L848.48,167.01L858.59,168.65L929.29,179.38L939.39,180.81L1000,188.88" style="vector-effect: none; fill: none; stroke: rgb(57, 125, 185); stroke-opacity: 1; stroke-dasharray: 9px, 9px; stroke-width: 2px; opacity: 1;"/></g><g class="points"/><g class="text"/></g><g class="trace scatter trace8aab9b" style="stroke-miterlimit: 2; opacity: 1;"><g class="fills"/><g class="errorbars"/><g class="lines"><path class="js-line" d="M0,-26.67L1000,186.67" style="vector-effect: none; fill: none; stroke: rgb(57, 125, 185); stroke-opacity: 1; stroke-dasharray: 3px, 3px; stroke-width: 3px; opacity: 1;"/></g><g class="points"/><g class="text"/></g><g class="trace scatter trace99ecb4" style="stroke-miterlimit: 2; opacity: 1;"><g class="fills"/><g class="errorbars"/><g class="lines"/><g class="points"><path class="point" transform="translate(750,133.33)" d="M4,0A4,4 0 1,1 0,-4A4,4 0 0,1 4,0Z" style="opacity: 1; stroke-width: 0px; fill: rgb(57, 125, 185); fill-opacity: 1;"/></g><g class="text"/></g></g></g><g class="overplot"><g class="x2y2" transform="" clip-path="url(#clip252554x2y2plot)"><g class="scatterlayer mlayer"><g class="trace scatter traced053a3" style="stroke-miterlimit: 2; opacity: 1;"><g class="fills"/><g class="errorbars"/><g class="lines"><path class="js-line" d="M989.9,381.01L979.8,288.75L969.7,245.52L959.6,218.83L949.49,200.14L939.39,186.07L929.29,174.94L919.19,165.84L909.09,158.21L888.89,146.01L878.79,141.01L858.59,132.58L848.48,128.97L818.18,119.9L808.08,117.34L777.78,110.65L767.68,108.7L727.27,101.95L717.17,100.48L666.67,94.09L656.57,92.97L595.96,87.12L585.86,86.26L505.05,80.33L494.95,79.68L393.94,74.07L383.84,73.59L262.63,68.49L252.53,68.11L80.81,62.71L70.71,62.43L0,60.63" style="vector-effect: none; fill: none; stroke: rgb(57, 125, 185); stroke-opacity: 1; stroke-dasharray: 9px, 9px; stroke-width: 2px; opacity: 1;"/></g><g class="points"/><g class="text"/></g></g></g></g><path class="xlines-above crisp" d="M-5,402.5H1005" style="fill: none; stroke-width: 5px; stroke: rgb(255, 255, 255); stroke-opacity: 1;"/><path class="ylines-above crisp" d="M-2.5,0V400" style="fill: none; stroke-width: 5px; stroke: rgb(255, 255, 255); stroke-opacity: 1;"/><g class="overlines-above"><path class="x2y2-x crisp" d="M-5,-2.5H1005" style="fill: none; stroke-width: 5px; stroke: rgb(255, 255, 255); stroke-opacity: 1;"/><path class="x2y2-y crisp" d="M1002.5,0V400" style="fill: none; stroke-width: 5px; stroke: rgb(255, 255, 255); stroke-opacity: 1;"/></g><g class="xaxislayer-above"/><g class="yaxislayer-above"/><g class="overaxes-above"><g class="x2y2-x"/><g class="x2y2-y"/></g></g><g class="subplot x2y2"/></g><g class="polarlayer"/><g class="smithlayer"/><g class="ternarylayer"/><g class="geolayer"/><g class="funnelarealayer"/><g class="pielayer"/><g class="iciclelayer"/><g class="treemaplayer"/><g class="sunburstlayer"/><g class="glimages"/><defs id="topdefs-252554"><g class="clips"/></defs><g class="layer-above"><g class="imagelayer"/><g class="shapelayer"/></g><g class="infolayer"><g class="g-gtitle"/><g class="g-xtitle"/><g class="g-x2title"/><g class="g-ytitle"/><g class="g-y2title"/></g></svg>